<svg width="83" height="82" viewBox="0 0 83 82" fill="none" xmlns="http://www.w3.org/2000/svg">
<rect width="83" height="82" fill="#7F7F7F"/>
<g clip-path="url(#clip0_0_1)">
<rect width="1920" height="12542" transform="translate(-1409 -3615)" fill="url(#paint0_linear_0_1)"/>
<g filter="url(#filter0_d_0_1)">
<rect x="-33" y="-32" width="145" height="146" fill="white"/>
</g>
<g clip-path="url(#clip1_0_1)" filter="url(#filter1_d_0_1)">
<path d="M66.5485 61.7775C66.5485 65.2658 66.5485 68.5827 66.5485 71.8996C66.5485 73.8823 66.429 74.0004 64.4416 74.0004C44.91 74.0004 25.3807 74.0004 5.84916 74.0004C4.18989 74.0004 4.00709 73.8313 4.00474 72.2447C4.00006 68.5387 3.99771 64.8303 4.00474 61.1243C4.00709 59.6767 4.33519 59.3431 5.79057 59.3362C8.47634 59.3246 11.1645 59.3315 13.9369 59.3315V49.448C11.2746 49.448 8.66851 49.448 6.06243 49.448C4.33285 49.448 4.00474 49.1307 4.00474 47.4398C4.0024 43.7709 4.00006 40.1019 4.00474 36.4353C4.00709 34.9598 4.37503 34.6008 5.87494 34.5985C15.0548 34.5961 24.2347 34.5799 33.4123 34.6239C34.3427 34.6286 34.7739 34.3089 35.184 33.5446C38.2753 27.7933 41.411 22.0628 44.5327 16.3255C45.974 13.678 48.2074 13.4996 50.0284 15.89C51.765 18.1692 53.497 20.453 55.3179 22.8527C56.2601 22.1439 57.2256 21.5046 58.0693 20.7356C58.3927 20.4415 58.5404 19.8624 58.5896 19.3945C58.6623 18.7089 58.592 18.0071 58.5474 17.3122C58.4396 15.6283 59.0958 14.3196 60.4668 13.3305C61.2519 12.763 62.016 12.1701 62.7894 11.591C60.6403 8.58218 61.4301 8.8694 63.6541 7.17158C66.4337 5.04988 69.26 2.98609 72.0841 0.919982C73.6496 -0.226568 75.3651 -0.291424 76.7455 0.68604C78.5079 1.93451 79.4477 4.01451 78.7985 5.6938C78.4962 6.47207 77.9009 7.2457 77.233 7.76222C74.1886 10.1155 71.074 12.3762 67.9828 14.6693C66.3962 15.846 66.136 15.8066 64.8752 14.2246C64.7322 14.0439 64.5799 13.8679 64.3361 13.5737C63.401 14.2732 62.4167 14.8917 61.5941 15.6769C61.2309 16.0243 60.9449 16.7655 61.0504 17.2334C61.7886 20.5017 60.3497 22.6651 57.6334 24.2587C57.4014 24.3953 57.2069 24.5876 56.9561 24.7844C58.7841 28.1963 62.1613 30.6214 63.3331 34.5985C63.7479 34.5985 64.3291 34.5869 64.908 34.6008C66.1243 34.6309 66.5391 35.0455 66.5461 36.3357C66.5626 39.4255 66.5532 42.5131 66.5532 45.603C66.5532 45.9852 66.5532 46.3651 66.5532 46.921C67.2375 46.921 67.8445 46.921 68.4515 46.921C70.5607 46.921 72.67 46.9071 74.7792 46.9279C76.0705 46.9395 76.4877 47.3472 76.4901 48.5702C76.4994 52.4314 76.5018 56.2926 76.4901 60.1538C76.4854 61.4648 76.169 61.7705 74.798 61.7775C72.1099 61.7914 69.4217 61.7821 66.5508 61.7821L66.5485 61.7775ZM47.3122 16.4528C43.0867 24.2332 39.0158 31.7263 34.945 39.2217L35.2473 39.59C43.6585 37.825 52.0697 36.0577 60.7856 34.2279C58.7091 31.4761 56.7897 28.9352 54.8258 26.3317C53.136 27.5779 51.5166 28.7661 49.9042 29.9659C49.2293 30.4686 48.552 30.6307 47.9543 29.908C47.2817 29.0927 47.7364 28.4766 48.4231 27.9624C50.0331 26.7602 51.6502 25.5673 53.3118 24.3374C51.3198 21.72 49.4074 19.2046 47.3145 16.4505L47.3122 16.4528ZM73.9683 59.2782V49.5291H56.6257V59.2782H73.9683ZM16.5501 59.2296H33.9279V49.5175H16.5501V59.2296ZM26.6041 61.8308V71.5822H43.9468V61.8308H26.6041ZM63.9237 71.6239V61.8586H46.5575V71.6239H63.9237ZM36.6652 49.4874V59.2366H53.8813V49.4874H36.6652ZM23.9347 61.8447H6.62723V71.6077H23.9347V61.8447ZM46.5693 39.6919V46.8306H63.9307V37.1857C57.8561 36.565 52.3252 38.8905 46.5693 39.6919ZM23.9441 37.195H6.63661V39.4904C7.41703 39.4904 8.11542 39.4672 8.81147 39.4974C9.66689 39.5321 10.2739 39.9537 10.2294 40.8408C10.1872 41.6538 9.60361 42.0313 8.78101 42.0267C8.05683 42.0221 7.335 42.0267 6.62489 42.0267V46.8191H23.9441V37.1973V37.195ZM43.989 40.4053C43.7054 40.4192 43.471 40.4007 43.2507 40.447C40.8907 40.9381 38.5331 41.4407 36.1754 41.9387C33.8669 42.4274 31.9897 40.3752 32.7115 38.1447C32.8123 37.8343 32.9482 37.5378 33.0795 37.1996H26.5877V46.8399H43.989V40.4053ZM66.7102 12.499C69.8623 10.1572 72.9207 7.9151 75.9417 5.62431C76.9166 4.88543 76.4455 4.08863 75.8596 3.32426C75.2714 2.5599 74.6363 2.11517 73.7082 2.79847C72.677 3.55589 71.6505 4.31794 70.624 5.08231C68.6109 6.58093 66.5977 8.07955 64.5306 9.61987C65.2689 10.595 65.9391 11.4798 66.7102 12.5013V12.499Z" fill="#DBB643"/>
<path d="M16.4985 42.0286C15.7579 42.0286 15.0173 42.0333 14.2744 42.0286C13.4166 42.024 12.8003 41.6696 12.7979 40.7616C12.7979 39.9185 13.3862 39.5201 14.1806 39.5039C15.7391 39.4715 17.3023 39.4645 18.8608 39.5085C19.6389 39.5294 20.2224 39.9116 20.2131 40.7825C20.2037 41.6511 19.6342 41.9962 18.8374 42.0217C18.057 42.0471 17.2765 42.0263 16.4961 42.0286H16.4985Z" fill="#DBB643"/>
</g>
</g>
<defs>
<filter id="filter0_d_0_1" x="-37" y="-32" width="153" height="154" filterUnits="userSpaceOnUse" color-interpolation-filters="sRGB">
<feFlood flood-opacity="0" result="BackgroundImageFix"/>
<feColorMatrix in="SourceAlpha" type="matrix" values="0 0 0 0 0 0 0 0 0 0 0 0 0 0 0 0 0 0 127 0" result="hardAlpha"/>
<feOffset dy="4"/>
<feGaussianBlur stdDeviation="2"/>
<feComposite in2="hardAlpha" operator="out"/>
<feColorMatrix type="matrix" values="0 0 0 0 0 0 0 0 0 0 0 0 0 0 0 0 0 0 0.25 0"/>
<feBlend mode="normal" in2="BackgroundImageFix" result="effect1_dropShadow_0_1"/>
<feBlend mode="normal" in="SourceGraphic" in2="effect1_dropShadow_0_1" result="shape"/>
</filter>
<filter id="filter1_d_0_1" x="0" y="0" width="83" height="82" filterUnits="userSpaceOnUse" color-interpolation-filters="sRGB">
<feFlood flood-opacity="0" result="BackgroundImageFix"/>
<feColorMatrix in="SourceAlpha" type="matrix" values="0 0 0 0 0 0 0 0 0 0 0 0 0 0 0 0 0 0 127 0" result="hardAlpha"/>
<feOffset dy="4"/>
<feGaussianBlur stdDeviation="2"/>
<feComposite in2="hardAlpha" operator="out"/>
<feColorMatrix type="matrix" values="0 0 0 0 0 0 0 0 0 0 0 0 0 0 0 0 0 0 0.25 0"/>
<feBlend mode="normal" in2="BackgroundImageFix" result="effect1_dropShadow_0_1"/>
<feBlend mode="normal" in="SourceGraphic" in2="effect1_dropShadow_0_1" result="shape"/>
</filter>
<linearGradient id="paint0_linear_0_1" x1="1869" y1="3938.07" x2="82.4904" y2="12355.8" gradientUnits="userSpaceOnUse">
<stop stop-color="#275A53"/>
<stop offset="1" stop-color="#079980"/>
</linearGradient>
<clipPath id="clip0_0_1">
<rect width="1920" height="12542" fill="white" transform="translate(-1409 -3615)"/>
</clipPath>
<clipPath id="clip1_0_1">
<rect width="75" height="74" fill="white" transform="translate(4)"/>
</clipPath>
</defs>
</svg>
