<svg width="73" height="79" viewBox="0 0 73 79" fill="none" xmlns="http://www.w3.org/2000/svg">
<rect width="73" height="79" fill="#7F7F7F"/>
<g clip-path="url(#clip0_0_1)">
<rect width="1920" height="12542" transform="translate(-1170 -3619)" fill="url(#paint0_linear_0_1)"/>
<g filter="url(#filter0_d_0_1)">
<rect x="-38" y="-36" width="145" height="146" fill="#DBB643"/>
</g>
<g clip-path="url(#clip1_0_1)" filter="url(#filter1_d_0_1)">
<path d="M4 39.661C4 30.862 4 22.0607 4 13.2617C4 9.93019 5.64954 8.31988 9.06822 8.31323C11.8144 8.30879 14.5607 8.29105 17.3069 8.32654C18.0132 8.33541 18.451 8.16905 18.8323 7.52138C19.6808 6.07964 21.0731 5.47412 22.7316 5.56062C23.5598 5.60276 23.984 5.40536 24.2751 4.56693C25.2387 1.80323 27.8811 0.0132593 30.8214 -4.89967e-05C33.8068 -0.0133573 36.465 1.79214 37.4647 4.6002C37.7106 5.29445 37.9927 5.61385 38.7983 5.56284C40.6803 5.44084 42.138 6.16393 43.1218 7.81195C43.2888 8.09364 43.8417 8.28661 44.2208 8.29105C47.0798 8.33097 49.9389 8.30657 52.798 8.31545C56.0203 8.32432 57.7127 10.0012 57.715 13.1863C57.7172 22.948 57.724 32.7096 57.7014 42.4713C57.7014 43.2565 57.8842 43.5959 58.7327 43.8177C64.7148 45.3881 69.0158 51.0219 69.0023 57.1504C68.9887 63.3166 64.5975 68.9749 58.5702 70.4831C57.3088 70.7981 55.9774 70.9755 54.6777 70.9778C39.3647 71.011 24.0517 71.0022 8.7365 70.9977C5.73303 70.9977 4.00677 69.2765 4.00451 66.2844C3.99774 57.4099 4.00451 48.5355 4.00226 39.6632L4 39.661ZM41.0052 59.9052C34.5018 59.9052 28.1113 59.9052 21.7185 59.9052C21.0031 59.9052 20.2855 59.9385 19.5747 59.8897C18.7691 59.8343 18.2276 59.4372 18.2095 58.5722C18.1892 57.6628 18.7127 57.2258 19.5815 57.1415C19.9177 57.1083 20.2585 57.1238 20.5969 57.1238C26.8408 57.1238 33.0847 57.1238 39.3286 57.1238C39.7709 57.1238 40.2109 57.1238 40.5358 57.1238C40.9353 55.1985 41.3053 53.4196 41.6912 51.5653H40.4546C34.7749 51.5653 29.0951 51.5653 23.4154 51.5653C22.1743 51.5653 20.9332 51.5764 19.6921 51.5542C18.8301 51.5387 18.2366 51.1683 18.2118 50.2412C18.1869 49.2586 18.7985 48.8726 19.7056 48.8127C20.0057 48.7928 20.3081 48.8061 20.6082 48.8061C27.942 48.8061 35.2781 48.8194 42.6119 48.7772C43.1173 48.775 43.7537 48.4689 44.1012 48.1007C45.7914 46.3063 47.7049 44.838 50.0991 44.1171C51.5884 43.6691 53.1387 43.4095 54.7589 43.0436C54.7634 42.9925 54.795 42.8151 54.795 42.6377C54.7973 32.6564 54.7995 22.6774 54.795 12.6961C54.795 11.5716 54.3189 11.1191 53.1274 11.1058C51.171 11.0858 49.2145 11.0991 47.2604 11.0991C46.0328 11.0991 44.8052 11.0991 43.598 11.0991C43.4355 12.9504 42.4494 13.8761 40.6396 13.8761C34.0573 13.8761 27.4749 13.8761 20.8926 13.8761C18.3449 13.8761 18.2885 13.8229 18.1802 11.3852C18.1779 11.3209 18.1215 11.261 18.0403 11.0991C15.0864 11.0991 12.0852 11.0991 9.08401 11.0991C7.23815 11.0991 6.92224 11.4074 6.92224 13.2151C6.92224 30.8465 6.92224 48.48 6.92224 66.1114C6.92224 67.9412 7.19979 68.2163 9.09304 68.2163C20.9783 68.2185 32.8658 68.2163 44.7511 68.2163C45.1392 68.2163 45.5296 68.1764 46.184 68.1409C43.4333 65.8474 41.7408 63.2146 41.0075 59.9097L41.0052 59.9052ZM66.0823 57.0905C66.0755 50.9421 61.1156 46.0601 54.865 46.0512C48.6324 46.0424 43.51 51.0618 43.5213 57.1704C43.5303 63.2323 48.6211 68.2008 54.8243 68.2074C61.1088 68.2141 66.0913 63.2944 66.0845 57.0905H66.0823ZM40.7254 11.0437C40.8698 8.69473 40.5223 8.32875 38.2612 8.32654C37.8867 8.32654 37.5098 8.32875 37.1352 8.32654C35.5692 8.31101 35.3503 8.12247 35.1088 6.61198C34.7568 4.40279 33.1727 2.90339 31.0854 2.80357C28.9372 2.69933 27.238 4.01242 26.7145 6.17724C26.3685 7.61158 25.4335 8.32875 23.9096 8.32875C23.6839 8.32875 23.4583 8.32875 23.2326 8.32875C21.1904 8.33541 20.6895 8.95425 21.0844 11.0459H40.7254V11.0437Z" fill="white"/>
<path d="M33.6105 26.6256C29.1719 26.6256 24.7355 26.6256 20.2968 26.6233C19.9222 26.6233 19.4348 26.7187 19.2002 26.528C18.7872 26.1908 18.2727 25.6674 18.2772 25.2282C18.2817 24.789 18.7985 24.2611 19.2272 23.9506C19.507 23.7487 20.026 23.8463 20.4367 23.8463C29.2757 23.8419 38.1123 23.8419 46.9512 23.8463C47.2897 23.8463 47.635 23.8308 47.9644 23.8885C48.7249 24.0216 49.1581 24.463 49.1559 25.257C49.1559 26.0622 48.691 26.4858 47.9374 26.6012C47.4951 26.6677 47.037 26.63 46.5857 26.63C42.2599 26.63 37.9363 26.63 33.6105 26.63V26.6256Z" fill="white"/>
<path d="M33.6737 32.1662C38.1484 32.1662 42.6254 32.1662 47.1002 32.1707C47.4725 32.1707 47.9644 32.0908 48.1923 32.2838C48.5985 32.6276 49.0995 33.1621 49.0837 33.6013C49.0679 34.0383 48.5353 34.5506 48.1021 34.8501C47.8155 35.0475 47.301 34.9455 46.8903 34.9455C38.0897 34.9499 29.2892 34.9477 20.4886 34.9455C20.114 34.9455 19.6379 35.0564 19.3852 34.8767C18.9248 34.5506 18.3968 34.1004 18.2546 33.6035C18.0358 32.8494 18.6112 32.3725 19.3536 32.2062C19.6763 32.133 20.026 32.1662 20.3645 32.1662C24.8032 32.1662 29.2395 32.1662 33.6782 32.1662H33.6737Z" fill="white"/>
<path d="M33.7933 40.4817C38.1552 40.4817 42.5194 40.4817 46.8813 40.4839C47.2942 40.4839 47.8245 40.373 48.0908 40.5771C48.5353 40.9165 49.0566 41.4577 49.0792 41.9368C49.0995 42.3471 48.5105 42.8373 48.0998 43.1922C47.9238 43.3452 47.5221 43.2632 47.222 43.2632C38.1958 43.2654 29.1696 43.2632 20.1434 43.2632C19.9922 43.2632 19.841 43.2676 19.6921 43.2587C18.8391 43.2055 18.2366 42.8573 18.2118 41.9323C18.1847 40.9564 18.7737 40.5061 19.6898 40.495C22.2465 40.4662 24.8054 40.4795 27.3621 40.4795C29.5058 40.4795 31.6495 40.4795 33.7933 40.4795V40.4817Z" fill="white"/>
<path d="M15.2918 25.5188C15.276 26.0844 14.8021 26.5324 13.983 26.6056C13.1842 26.6766 12.5546 26.0489 12.5614 25.2437C12.5681 24.3987 13.0443 23.9484 13.8679 23.8796C14.6712 23.8131 15.2873 24.4297 15.2895 25.5188H15.2918Z" fill="white"/>
<path d="M12.5659 33.8098C12.5456 32.7806 13.1571 32.1263 13.9491 32.1884C14.7525 32.2483 15.2737 32.6586 15.2895 33.5192C15.3053 34.3443 14.7231 34.9543 13.904 34.9122C13.0713 34.87 12.6065 34.422 12.5659 33.8098Z" fill="white"/>
<path d="M13.9988 43.2565C13.0894 43.2321 12.5095 42.6022 12.5659 41.7904C12.6246 40.9453 13.1413 40.535 13.9627 40.5194C14.766 40.5039 15.3369 41.1538 15.2895 41.9723C15.2399 42.8351 14.6848 43.1722 13.9988 43.2565Z" fill="white"/>
<path d="M13.825 51.5587C13.1323 51.4833 12.602 51.1173 12.5614 50.2611C12.523 49.4537 13.1165 48.7883 13.9108 48.8282C14.7141 48.8682 15.2489 49.263 15.2873 50.1236C15.3234 50.9531 14.7592 51.5498 13.825 51.5587Z" fill="white"/>
<path d="M15.294 58.7852C15.2828 59.353 14.8111 59.8055 13.9943 59.8831C13.1977 59.9607 12.5613 59.3352 12.5636 58.5301C12.5636 57.685 13.0375 57.2325 13.8589 57.1571C14.6622 57.0839 15.2828 57.7005 15.2918 58.7852H15.294Z" fill="white"/>
<path d="M53.4343 58.0333C54.9439 56.5161 56.3227 55.1143 57.7217 53.7302C58.5837 52.8785 59.439 52.772 60.0686 53.3975C60.6959 54.0208 60.5785 54.8504 59.712 55.7087C58.0715 57.3324 56.4287 58.9515 54.7724 60.5596C53.7615 61.54 53.1094 61.5311 52.0939 60.5485C51.2906 59.7722 50.494 58.9893 49.7087 58.1974C49.0588 57.5431 48.955 56.8222 49.6501 56.1546C50.3496 55.4803 51.083 55.6378 51.7306 56.2677C52.2654 56.7845 52.7641 57.3368 53.4343 58.0333Z" fill="white"/>
<path d="M32.2182 6.52546C32.234 7.72543 31.6473 8.33762 30.8304 8.28882C30.0045 8.24002 29.5171 7.80528 29.4968 6.95577C29.4765 6.15061 30.0993 5.50072 30.8891 5.56283C31.6947 5.62715 32.2024 6.04858 32.2182 6.52324V6.52546Z" fill="white"/>
</g>
</g>
<defs>
<filter id="filter0_d_0_1" x="-42" y="-36" width="153" height="154" filterUnits="userSpaceOnUse" color-interpolation-filters="sRGB">
<feFlood flood-opacity="0" result="BackgroundImageFix"/>
<feColorMatrix in="SourceAlpha" type="matrix" values="0 0 0 0 0 0 0 0 0 0 0 0 0 0 0 0 0 0 127 0" result="hardAlpha"/>
<feOffset dy="4"/>
<feGaussianBlur stdDeviation="2"/>
<feComposite in2="hardAlpha" operator="out"/>
<feColorMatrix type="matrix" values="0 0 0 0 0 0 0 0 0 0 0 0 0 0 0 0 0 0 0.25 0"/>
<feBlend mode="normal" in2="BackgroundImageFix" result="effect1_dropShadow_0_1"/>
<feBlend mode="normal" in="SourceGraphic" in2="effect1_dropShadow_0_1" result="shape"/>
</filter>
<filter id="filter1_d_0_1" x="0" y="0" width="73" height="79" filterUnits="userSpaceOnUse" color-interpolation-filters="sRGB">
<feFlood flood-opacity="0" result="BackgroundImageFix"/>
<feColorMatrix in="SourceAlpha" type="matrix" values="0 0 0 0 0 0 0 0 0 0 0 0 0 0 0 0 0 0 127 0" result="hardAlpha"/>
<feOffset dy="4"/>
<feGaussianBlur stdDeviation="2"/>
<feComposite in2="hardAlpha" operator="out"/>
<feColorMatrix type="matrix" values="0 0 0 0 0 0 0 0 0 0 0 0 0 0 0 0 0 0 0.25 0"/>
<feBlend mode="normal" in2="BackgroundImageFix" result="effect1_dropShadow_0_1"/>
<feBlend mode="normal" in="SourceGraphic" in2="effect1_dropShadow_0_1" result="shape"/>
</filter>
<linearGradient id="paint0_linear_0_1" x1="1869" y1="3938.07" x2="82.4904" y2="12355.8" gradientUnits="userSpaceOnUse">
<stop stop-color="#275A53"/>
<stop offset="1" stop-color="#079980"/>
</linearGradient>
<clipPath id="clip0_0_1">
<rect width="1920" height="12542" fill="white" transform="translate(-1170 -3619)"/>
</clipPath>
<clipPath id="clip1_0_1">
<rect width="65" height="71" fill="white" transform="translate(4)"/>
</clipPath>
</defs>
</svg>
