<svg width="86" height="84" viewBox="0 0 86 84" fill="none" xmlns="http://www.w3.org/2000/svg">
<rect width="86" height="84" fill="#7F7F7F"/>
<g clip-path="url(#clip0_0_1)">
<rect width="1920" height="12542" transform="translate(-673 -3617)" fill="url(#paint0_linear_0_1)"/>
<g filter="url(#filter0_d_0_1)">
<rect x="-29" y="-34" width="145" height="146" fill="#DBB643"/>
</g>
<g clip-path="url(#clip1_0_1)" filter="url(#filter1_d_0_1)">
<path d="M77.4455 43.5123H8.36026C9.22981 45.8268 10.0691 48.0557 10.9066 50.2863C10.9778 50.4756 11.0527 50.6631 11.1222 50.8524C11.4019 51.6061 11.2808 52.2883 10.4914 52.5633C9.72696 52.8294 9.19596 52.4294 8.90195 51.6579C7.62078 48.2843 6.31822 44.9196 5.02636 41.5478C4.68067 40.6459 4.1764 39.7601 4.04811 38.826C3.6953 36.2525 5.17247 33.9826 7.8738 33.4075C9.98177 32.9575 12.2109 32.8771 14.3759 32.9557C16.2522 33.0218 17.5761 34.5362 17.9699 36.4079C18.2034 37.5187 18.5562 38.6081 18.7219 39.7279C18.8627 40.678 19.2529 40.9459 20.2169 40.9441C35.3522 40.9102 50.4892 40.912 65.6245 40.9388C66.544 40.9388 67.0019 40.7459 67.1552 39.7511C67.3529 38.4724 67.6523 37.1901 68.0889 35.9757C68.6662 34.3666 70.0329 33.4718 71.6009 33.1325C74.1437 32.5806 76.6704 32.8682 79.1312 33.7701C82.3849 34.9613 82.5239 39.0796 81.232 41.3602C80.1059 43.3498 79.4198 45.5929 78.5592 47.7324C78.046 49.0111 77.5667 50.3059 77.082 51.5954C76.7898 52.374 76.2819 52.9027 75.4266 52.6008C74.5036 52.274 74.4609 51.5311 74.7852 50.6917C75.5603 48.6879 76.3105 46.6734 77.0642 44.6624C77.2014 44.2981 77.3065 43.923 77.4384 43.5123H77.4455ZM70.432 36.3864C70.4784 36.6043 70.5229 36.8204 70.5692 37.0383C71.6651 37.2098 72.7592 37.3866 73.855 37.5527C74.7103 37.683 75.7153 37.7473 75.5959 38.9421C75.4801 40.0922 74.5464 40.1172 73.643 39.9851C72.3743 39.7993 71.1074 39.6011 69.7211 39.3904C69.6266 39.8065 69.509 40.319 69.3754 40.9048C71.9235 40.9048 74.3165 40.9495 76.706 40.8888C78.1155 40.853 79.3753 39.6672 79.5036 38.4492C79.6283 37.2598 78.8158 36.1007 77.2905 35.8167C75.6761 35.5185 74.0011 35.4274 72.3565 35.4578C71.7096 35.4703 71.0735 36.0596 70.432 36.3864ZM15.4308 36.9472L15.5965 36.4222C15.1563 36.0703 14.7429 35.456 14.2743 35.4113C12.2269 35.2167 10.1404 35.0113 8.17672 35.8971C7.13611 36.3668 6.51067 37.1705 6.60332 38.3885C6.67816 39.3654 7.62434 40.5691 8.7006 40.6155C11.2647 40.7262 13.836 40.6512 16.4678 40.6512C16.3698 40.2601 16.2469 39.7708 16.1489 39.3761C14.8214 39.5636 13.6257 39.7511 12.4247 39.894C11.548 39.9976 10.707 39.8636 10.6375 38.7724C10.568 37.6812 11.3627 37.5169 12.2608 37.4384C13.3246 37.3455 14.3741 37.1169 15.4308 36.9472Z" fill="white"/>
<path d="M30.2738 24.3189C29.5076 24.3189 28.8269 24.3528 28.1498 24.3118C26.343 24.2046 25.2133 22.4419 26.0472 20.8578C26.5426 19.9148 27.2232 18.979 28.0465 18.3289C28.7806 17.7503 28.9873 17.1663 29.0728 16.3162C29.4542 12.5461 31.1416 9.44572 34.0175 6.99186C34.6252 6.47395 35.3058 6.13998 35.9295 6.87935C36.5603 7.62765 36.2324 8.32952 35.5678 8.88494C33.0803 10.9691 31.6886 13.6051 31.4552 16.9716H54.4539C54.5591 15.3768 54.1011 13.8945 53.3064 12.6068C52.5081 11.312 51.4693 10.1494 50.4269 9.0296C49.8228 8.38131 49.397 7.76517 50.0545 7.0508C50.7013 6.34714 51.4461 6.63825 52.0912 7.21868C54.8246 9.67432 56.5102 12.6925 56.9004 16.3733C56.9842 17.1556 57.2497 17.6253 57.8983 18.1342C58.759 18.8111 59.5519 19.7112 60.0562 20.681C61.0059 22.5115 59.8904 24.2171 57.8252 24.3153C57.1463 24.3475 56.4657 24.3207 55.6888 24.3207C55.7921 28.7659 54.3755 32.4645 50.9739 35.263C48.5577 37.2508 45.7423 38.2116 42.6436 38.1116C36.1914 37.9062 30.0867 32.6824 30.2774 24.3171L30.2738 24.3189ZM53.0551 24.3385H51.676C45.9205 24.3385 40.1668 24.3385 34.4113 24.3385C32.7382 24.3385 32.6384 24.4493 32.7613 26.128C33.2745 33.1432 40.664 37.6115 47.0823 34.7898C51.1165 33.0164 53.7893 28.4408 53.0551 24.3385ZM57.5722 21.7293C56.9521 20.1398 56.0362 19.5308 54.347 19.5308C46.97 19.5255 39.593 19.5255 32.2143 19.5344C31.6494 19.5344 31.0668 19.5541 30.5251 19.6916C29.4239 19.9702 28.6149 20.6077 28.3155 21.7293H57.574H57.5722Z" fill="white"/>
<path d="M42.9323 75.9964C36.3179 75.9964 29.7054 76.0053 23.0911 75.9928C19.8748 75.9857 17.4532 74.3087 16.6104 71.637C16.3359 70.7672 16.548 70.0689 17.3659 69.9225C17.8113 69.8421 18.6791 70.2993 18.8288 70.7083C19.6093 72.8585 21.1862 73.5497 23.2888 73.5479C32.8647 73.5372 42.4405 73.5443 52.0145 73.5443C55.5854 73.5443 59.1563 73.5175 62.7254 73.555C64.7621 73.5765 66.2749 72.821 67.0536 70.8762C67.3672 70.0957 67.9125 69.7314 68.6609 70.0171C69.4467 70.3172 69.632 70.9458 69.3522 71.8084C68.5201 74.3855 66.1359 75.9875 62.8929 75.9946C56.2394 76.0089 49.584 75.9982 42.9305 75.9982L42.9323 75.9964Z" fill="white"/>
<path d="M67.5703 52.849C68.4666 53.0169 70.2485 53.3866 72.0429 53.6688C72.7503 53.7795 73.4987 53.7813 74.2096 53.6884C77.0731 53.3187 78.9031 55.1011 78.5752 57.9657C78.3133 60.2588 77.6397 62.4073 76.3906 64.3539C74.3058 67.6025 70.4695 69.2206 66.6901 68.4723C63.162 67.774 60.9542 64.6611 61.1217 60.4267C61.1752 59.0605 61.4193 57.6764 61.7703 56.3512C62.4795 53.6759 63.889 52.7169 67.5721 52.849H67.5703ZM63.4595 60.4321C63.6253 61.3518 63.7019 62.2537 63.962 63.0984C64.3558 64.3825 65.0935 65.4148 66.4549 65.8756C69.0226 66.7453 72.2638 65.8041 73.9138 63.661C75.2413 61.9358 75.8151 59.9141 76.0717 57.7978C76.2125 56.637 75.628 56.2334 74.4555 56.2976C73.3009 56.3619 72.1248 56.3423 70.9809 56.1923C69.4235 55.9869 67.8911 55.5851 66.3373 55.335C65.0828 55.1332 64.3024 55.7815 64.0404 56.9745C63.7874 58.1193 63.6466 59.2891 63.4595 60.4321Z" fill="white"/>
<path d="M24.8302 60.6983C24.7019 61.6448 24.6662 62.7574 24.3865 63.804C23.5062 67.1133 20.6837 68.9367 17.0737 68.6331C12.3214 68.2331 9.02668 65.3131 7.91657 60.4536C7.67424 59.3927 7.46219 58.2962 7.45506 57.2157C7.44259 55.2226 9.31535 53.7707 11.2897 53.8403C12.8773 53.8957 14.4775 53.6617 16.0669 53.501C17.2714 53.3795 18.4635 53.0616 19.6681 53.0206C22.2447 52.9295 23.941 54.5136 24.4506 57.405C24.6324 58.4408 24.6947 59.4981 24.8284 60.7L24.8302 60.6983ZM12.7971 56.5531C12.7864 56.4978 12.7758 56.4424 12.7651 56.387C12.4408 56.3638 12.1182 56.3317 11.7939 56.3174C10.2829 56.2513 9.86238 56.7014 10.0798 58.1622C10.1582 58.6837 10.2473 59.2052 10.356 59.7214C11.3057 64.2094 14.7519 66.79 18.8252 66.09C20.5198 65.7989 21.7636 64.8559 22.0308 63.1914C22.3088 61.4591 22.3747 59.6428 22.1983 57.8979C21.9507 55.4637 21.0562 54.9815 18.6346 55.4673C16.6941 55.8566 14.743 56.1942 12.7954 56.5549L12.7971 56.5531Z" fill="white"/>
<path d="M47.2783 7.37939C47.2783 8.31522 47.2658 9.24926 47.2819 10.1851C47.2961 11.0798 47.1144 11.8996 46.0541 11.9389C44.9405 11.9799 44.8175 11.1441 44.8246 10.2512C44.8389 8.29915 44.9209 6.33999 44.7641 4.40226C44.7124 3.77361 44.1172 2.99674 43.5506 2.66634C43.1515 2.43417 42.2195 2.6592 41.824 3.01281C41.4159 3.37892 41.2181 4.1433 41.1932 4.74516C41.1148 6.61145 41.1522 8.48488 41.1664 10.3547C41.1736 11.2298 40.9455 11.9567 39.9405 11.9531C38.9444 11.9496 38.7003 11.237 38.7092 10.3547C38.7271 8.36344 38.6807 6.37035 38.7288 4.37904C38.7876 1.92161 40.598 0.060677 42.9038 -4.43833e-05C45.2238 -0.0607658 47.15 1.83231 47.264 4.32904C47.3104 5.34344 47.2712 6.36142 47.2712 7.37761C47.2729 7.37761 47.2747 7.37761 47.2783 7.37761V7.37939Z" fill="white"/>
</g>
</g>
<defs>
<filter id="filter0_d_0_1" x="-33" y="-34" width="153" height="154" filterUnits="userSpaceOnUse" color-interpolation-filters="sRGB">
<feFlood flood-opacity="0" result="BackgroundImageFix"/>
<feColorMatrix in="SourceAlpha" type="matrix" values="0 0 0 0 0 0 0 0 0 0 0 0 0 0 0 0 0 0 127 0" result="hardAlpha"/>
<feOffset dy="4"/>
<feGaussianBlur stdDeviation="2"/>
<feComposite in2="hardAlpha" operator="out"/>
<feColorMatrix type="matrix" values="0 0 0 0 0 0 0 0 0 0 0 0 0 0 0 0 0 0 0.25 0"/>
<feBlend mode="normal" in2="BackgroundImageFix" result="effect1_dropShadow_0_1"/>
<feBlend mode="normal" in="SourceGraphic" in2="effect1_dropShadow_0_1" result="shape"/>
</filter>
<filter id="filter1_d_0_1" x="0" y="0" width="86" height="84" filterUnits="userSpaceOnUse" color-interpolation-filters="sRGB">
<feFlood flood-opacity="0" result="BackgroundImageFix"/>
<feColorMatrix in="SourceAlpha" type="matrix" values="0 0 0 0 0 0 0 0 0 0 0 0 0 0 0 0 0 0 127 0" result="hardAlpha"/>
<feOffset dy="4"/>
<feGaussianBlur stdDeviation="2"/>
<feComposite in2="hardAlpha" operator="out"/>
<feColorMatrix type="matrix" values="0 0 0 0 0 0 0 0 0 0 0 0 0 0 0 0 0 0 0.25 0"/>
<feBlend mode="normal" in2="BackgroundImageFix" result="effect1_dropShadow_0_1"/>
<feBlend mode="normal" in="SourceGraphic" in2="effect1_dropShadow_0_1" result="shape"/>
</filter>
<linearGradient id="paint0_linear_0_1" x1="1869" y1="3938.07" x2="82.4904" y2="12355.8" gradientUnits="userSpaceOnUse">
<stop stop-color="#275A53"/>
<stop offset="1" stop-color="#079980"/>
</linearGradient>
<clipPath id="clip0_0_1">
<rect width="1920" height="12542" fill="white" transform="translate(-673 -3617)"/>
</clipPath>
<clipPath id="clip1_0_1">
<rect width="78" height="76" fill="white" transform="translate(4)"/>
</clipPath>
</defs>
</svg>
