<svg width="73" height="74" viewBox="0 0 73 74" fill="none" xmlns="http://www.w3.org/2000/svg">
<rect width="73" height="74" fill="#7F7F7F"/>
<g clip-path="url(#clip0_0_1)">
<rect width="1920" height="12542" transform="translate(-923 -3623)" fill="url(#paint0_linear_0_1)"/>
<g filter="url(#filter0_d_0_1)">
<rect x="-35" y="-40" width="145" height="146" fill="#DBB643"/>
</g>
<g clip-path="url(#clip1_0_1)" filter="url(#filter1_d_0_1)">
<path d="M27.7639 55.6745C26.1625 55.6745 24.6874 55.6889 23.2122 55.6642C22.8481 55.658 22.3929 55.6209 22.1529 55.4044C21.9274 55.2023 21.764 54.6683 21.8777 54.4209C22.0143 54.1261 22.4674 53.8209 22.8005 53.8003C24.0377 53.7261 25.2812 53.7653 26.5225 53.7632C26.8908 53.7632 27.2611 53.7632 27.6956 53.7632V41.8234C26.3839 41.8234 25.1198 41.8234 23.8536 41.8234C23.5432 41.8234 23.2329 41.8337 22.9226 41.8172C22.3184 41.7821 21.8302 41.5925 21.8095 40.8729C21.7888 40.143 22.2936 39.9018 22.877 39.875C23.9777 39.8255 25.0825 39.8564 26.1853 39.8523C26.6632 39.8523 27.1411 39.8523 27.6894 39.8523V28.2712C26.3156 28.2712 24.9812 28.2712 23.6488 28.2712C23.3384 28.2712 22.9619 28.3723 22.7343 28.2341C22.3743 28.0156 21.8364 27.5908 21.8757 27.329C21.9315 26.9599 22.4198 26.4136 22.7695 26.3764C23.9281 26.2527 25.1094 26.3208 26.2805 26.3166C26.7211 26.3166 27.1639 26.3166 27.6832 26.3166V17.02C26.7522 17.02 25.8005 17.02 24.8508 17.02C24.3336 17.02 23.8163 17.0242 23.2991 17.02C22.5957 17.0097 21.8053 17.0406 21.8239 16.0386C21.8426 15.0675 22.6101 15.0634 23.3239 15.0634C24.7639 15.0634 26.2039 15.0634 27.6873 15.0634C27.7473 14.5335 27.7473 14.0861 27.8529 13.6655C28.246 12.1068 29.5432 11.1769 31.3349 11.1749C39.9893 11.1687 48.6437 11.1707 57.2981 11.1707C57.7015 11.1707 58.107 11.1707 58.467 11.1707C58.467 9.01616 58.6201 6.95437 58.4215 4.92763C58.2477 3.15036 56.4912 1.89885 54.7512 1.94421C52.9698 1.99164 51.414 3.27613 51.1512 5.04721C51.0064 6.0245 51.0416 7.03065 51.0209 8.02444C51.0064 8.70689 50.8699 9.32336 50.0443 9.31306C49.223 9.30275 49.0947 8.69246 49.0947 8.00588C49.0926 5.95027 48.8837 3.85756 50.5099 1.98545C49.9926 1.95658 49.6699 1.9236 49.3471 1.9236C36.6583 1.92153 23.9694 1.91947 11.2827 1.9236C7.82341 1.9236 5.97998 3.75034 5.97791 7.19353C5.97171 24.6487 5.97171 42.1038 5.97791 59.5589C5.97791 62.5609 7.40341 63.9753 10.4055 63.9794C15.0254 63.9856 19.6454 63.9794 24.2653 63.9815C24.5405 63.9815 24.8177 63.967 25.0929 63.9918C25.6908 64.0412 26.1998 64.2371 26.206 64.9484C26.2122 65.6536 25.728 65.8762 25.1198 65.9278C24.9481 65.9422 24.7743 65.9381 24.6025 65.9381C19.844 65.9381 15.0854 65.9381 10.3289 65.9381C8.25996 65.9381 6.35032 65.4165 5.22895 63.5918C4.59172 62.5568 4.06621 61.2496 4.06 60.062C3.98345 42.1966 3.9938 24.3291 4.01655 6.4616C4.02276 2.98336 6.89859 0.125714 10.4013 0.0267481C12.2282 -0.0247966 14.0551 0.0123156 15.884 0.0123156C28.6763 0.0123156 41.4686 0.0102538 54.2588 0.0123156C57.4429 0.0123156 59.5904 1.51742 60.3373 4.38331C60.5566 5.22659 60.4904 6.15233 60.507 7.04096C60.5318 8.37288 60.5132 9.7048 60.5132 11.1666C62.1435 11.1666 63.6828 11.1625 65.2221 11.1666C67.6986 11.1749 68.9876 12.447 68.9938 14.9005C69 17.4427 68.9897 19.9849 68.9979 22.5291C69 23.1889 68.7993 23.7621 68.0897 23.7992C67.2311 23.8446 67.0386 23.2054 67.0407 22.4714C67.0469 20.0653 67.0449 17.6612 67.0407 15.2551C67.0386 13.4263 66.7635 13.1439 64.9552 13.1439C53.8864 13.1418 42.8196 13.1418 31.7507 13.1439C30.0004 13.1439 29.7025 13.4469 29.7025 15.1871C29.7025 30.7866 29.7025 46.3861 29.7025 61.9856C29.7025 63.701 30.1039 64.0969 31.8418 64.0969C42.8072 64.0969 53.7705 64.0969 64.7359 64.0969C66.6973 64.0969 67.0407 63.7608 67.0428 61.8413C67.0428 50.5716 67.0428 39.3018 67.0428 28.03C67.0428 27.7888 67.0469 27.5496 67.0428 27.3084C67.0345 26.6074 67.1173 25.9249 68.0297 25.9373C68.9317 25.9517 68.9979 26.63 68.9979 27.3331C68.9938 39.0503 69 50.7674 68.9917 62.4825C68.9917 64.6227 67.6531 65.9835 65.5221 65.9855C54.0746 65.9979 42.6272 65.9999 31.1797 65.9855C29.1004 65.9835 27.7866 64.6309 27.766 62.5403C27.7432 60.3115 27.7618 58.0806 27.7618 55.6704L27.7639 55.6745Z" fill="white"/>
<path d="M48.1947 26.4425C43.5416 26.4425 38.8907 26.4466 34.2376 26.4425C32.09 26.4405 31.339 25.6714 31.3349 23.5024C31.3307 21.4427 31.3225 19.3809 31.3369 17.3212C31.3494 15.5377 32.2349 14.647 33.9976 14.647C43.4754 14.6429 52.9512 14.6429 62.429 14.647C64.1566 14.647 65.0359 15.5192 65.0462 17.2366C65.0587 19.3994 65.0545 21.5643 65.0462 23.7271C65.04 25.6384 64.2642 26.4363 62.3587 26.4405C57.6374 26.4528 52.916 26.4446 48.1947 26.4446V26.4425ZM48.1844 24.5519C52.8022 24.5519 57.4201 24.5354 62.0359 24.5684C62.8863 24.5745 63.2028 24.3168 63.1821 23.4529C63.1345 21.5313 63.1325 19.6056 63.1821 17.684C63.2049 16.814 62.8801 16.5562 62.038 16.5583C52.8043 16.5789 43.5685 16.5789 34.3348 16.5583C33.5342 16.5583 33.2321 16.8119 33.2487 17.6284C33.2921 19.55 33.2983 21.4757 33.2466 23.3973C33.2218 24.3003 33.53 24.5787 34.4362 24.5704C39.0189 24.5312 43.6016 24.5519 48.1844 24.5519Z" fill="white"/>
<path d="M57.9911 53.9571C57.9911 52.1366 57.9808 50.3181 57.9953 48.4975C58.0077 47.0151 58.7153 46.2976 60.207 46.2543C61.1359 46.2275 62.069 46.213 62.998 46.2625C64.2952 46.3306 65.0359 47.0893 65.0421 48.3717C65.0607 52.1139 65.0607 55.8581 65.0421 59.6002C65.0359 60.9548 64.2807 61.6723 62.9173 61.695C62.1932 61.7074 61.4711 61.6991 60.747 61.6971C58.4836 61.6971 57.9911 61.1961 57.9891 58.9013C57.9891 57.2539 57.9891 55.6045 57.9891 53.9571H57.9911ZM63.0973 59.7219V48.3099H59.9442V59.7219H63.0973Z" fill="white"/>
<path d="M13.6992 22.9023C14.4213 22.9023 15.1454 22.89 15.8675 22.9044C17.1585 22.9312 17.9778 23.6363 18.0254 24.9002C18.0854 26.4754 18.0833 28.0568 18.0274 29.632C17.984 30.8835 17.2557 31.5804 15.9833 31.6175C14.4006 31.6629 12.8158 31.6649 11.2351 31.6155C9.96683 31.5742 9.2758 30.8815 9.23029 29.597C9.17649 28.0547 9.17443 26.5084 9.23029 24.9662C9.2758 23.6322 10.0744 22.9271 11.4275 22.9023C12.1847 22.89 12.942 22.9003 13.6992 22.9003V22.9023ZM11.2827 24.9394V29.6526H15.9419V24.9394H11.2827Z" fill="white"/>
<path d="M13.5999 45.2007C12.8778 45.2007 12.1537 45.2089 11.4317 45.2007C10.0496 45.1842 9.27788 44.5182 9.2303 43.1698C9.17443 41.6276 9.17443 40.0812 9.2303 38.539C9.27995 37.1865 10.0434 36.5226 11.4358 36.5123C12.9151 36.4999 14.3964 36.4978 15.8757 36.5123C17.1916 36.5246 17.9799 37.2071 18.0274 38.4916C18.0854 40.0668 18.0874 41.6482 18.0274 43.2255C17.9778 44.51 17.1875 45.1821 15.8737 45.2027C15.1164 45.213 14.3592 45.2027 13.602 45.2048L13.5999 45.2007ZM11.2765 38.4318V43.2172H15.9647V38.4318H11.2765Z" fill="white"/>
<path d="M13.5647 59.025C12.8075 59.025 12.0503 59.0415 11.293 59.0209C10.0186 58.9858 9.28615 58.3467 9.23443 57.0746C9.17029 55.4993 9.17236 53.9179 9.23236 52.3427C9.27995 51.0521 10.0661 50.3552 11.3675 50.3387C12.882 50.3201 14.3964 50.3181 15.9088 50.3387C17.1916 50.3552 17.9861 51.083 18.0295 52.3654C18.0812 53.9076 18.0792 55.4519 18.0295 56.9941C17.9881 58.3013 17.2433 58.9776 15.9357 59.0229C15.8675 59.025 15.7971 59.025 15.7288 59.025C15.0068 59.025 14.2827 59.025 13.5606 59.025C13.5606 59.025 13.5606 59.0229 13.5606 59.0209L13.5647 59.025ZM11.262 57.0601H15.973V52.3386H11.262V57.0601Z" fill="white"/>
<path d="M34.8831 61.697C31.428 61.93 31.279 60.7795 31.3225 58.2064C31.3783 54.9776 31.6369 54.6746 34.8748 54.6746C38.1934 54.6746 38.3962 54.9282 38.4582 58.2497C38.512 61.0517 38.2141 61.8888 34.8831 61.697ZM33.41 59.7033H36.4431V56.7034C32.5783 56.5549 33.2942 56.0931 33.3149 59.5383C33.3149 59.5672 33.3459 59.5961 33.41 59.7053V59.7033Z" fill="white"/>
<path d="M47.3402 31.8711C47.3402 35.1308 47.0237 35.4442 43.7299 35.4442C40.5375 35.4442 40.2769 35.104 40.1817 31.8876C40.0906 28.7929 40.8893 28.2362 43.6616 28.395C43.7299 28.3991 43.8003 28.395 43.8685 28.395C47.032 28.395 47.3402 28.7042 47.3402 31.8711ZM42.2155 33.3969H45.3127V30.4238H42.2155V33.3969Z" fill="white"/>
<path d="M43.7651 61.697C40.6224 61.8887 40.0451 61.1383 40.2024 58.1157C40.2107 57.9445 40.2024 57.7713 40.2024 57.6002C40.2024 55.2353 40.7569 54.6766 43.1072 54.6745C43.763 54.6745 44.4168 54.6601 45.0727 54.6787C46.5602 54.7178 47.2968 55.4353 47.334 56.8951C47.3547 57.7198 47.3506 58.5445 47.3361 59.3692C47.3092 60.9919 46.612 61.6826 45.0044 61.697C44.5906 61.7011 44.1768 61.697 43.763 61.697H43.7651ZM42.2589 56.6765V59.7074H45.3106V56.6765H42.2589Z" fill="white"/>
<path d="M49.0968 49.7408C48.8485 46.3079 50.1374 46.1904 52.6595 46.2316C55.8767 46.2852 56.1912 46.5574 56.1912 49.7799C56.1912 53.0025 55.9181 53.2788 52.6698 53.3138C50.1147 53.3406 48.8588 53.3963 49.0968 49.7387V49.7408ZM54.1822 51.3242V48.3119H51.0871V51.3242H54.1822Z" fill="white"/>
<path d="M40.2044 49.7778C40.2044 46.6006 40.5603 46.246 43.7568 46.246C47.0133 46.246 47.3402 46.5738 47.3402 49.8459C47.3402 52.9839 47.0133 53.3076 43.8416 53.3076C43.8065 53.3076 43.7734 53.3076 43.7382 53.3076C41.3134 53.3963 39.9706 53.3591 40.2024 49.7778H40.2044ZM42.2237 48.3078V51.2932H45.3044V48.3078H42.2237Z" fill="white"/>
<path d="M52.6533 61.6971C49.3223 61.6971 49.1919 61.4682 49.0699 58.1343C48.9437 54.6746 50.1519 54.6272 52.5747 54.6622C55.9429 54.7117 56.1932 54.9261 56.1932 58.3157C56.1932 58.5899 56.1932 58.8642 56.1932 59.1404C56.1829 61.0909 55.5663 61.695 53.5822 61.6971C53.2719 61.6971 52.9615 61.6971 52.6512 61.6971H52.6533ZM51.0995 56.6704V59.6951H54.1843V56.6704H51.0995Z" fill="white"/>
<path d="M38.4438 31.8918C38.4438 35.168 38.1645 35.4443 34.8417 35.4443C31.6825 35.4443 31.3369 35.102 31.3369 31.9681C31.3369 28.6816 31.6225 28.3971 34.9204 28.3971C38.1914 28.3971 38.4438 28.6466 38.4438 31.8918ZM33.3873 30.3682V33.3846H36.4224V30.3682H33.3873Z" fill="white"/>
<path d="M57.9911 31.8568C57.9911 28.6404 58.2311 28.3971 61.4318 28.3971C64.8476 28.3971 65.0504 28.5971 65.0504 32.0094C65.0504 35.1309 64.7297 35.4443 61.5394 35.4443C61.0222 35.4443 60.5049 35.4711 59.9918 35.4299C58.6636 35.3206 58.0305 34.632 57.9974 33.298C57.9849 32.8176 57.9974 32.3372 57.9932 31.8568H57.9911ZM59.9422 30.3991V33.3722H63.1118V30.3991H59.9422Z" fill="white"/>
<path d="M38.4417 49.8315C38.4417 53.0169 38.1541 53.3077 34.9907 53.3077C31.5935 53.3077 31.3349 53.052 31.3349 49.6954C31.3349 49.4892 31.3349 49.283 31.3349 49.0769C31.337 46.879 31.9618 46.2501 34.1486 46.246C34.8024 46.246 35.4583 46.2337 36.1121 46.2481C37.7176 46.2852 38.4086 46.9841 38.4417 48.5965C38.45 49.0088 38.4417 49.4191 38.4417 49.8315ZM36.4679 48.3058H33.3314V51.2953H36.4679V48.3058Z" fill="white"/>
<path d="M49.0968 31.9104C48.8961 28.6589 49.7919 28.3229 52.6098 28.3806C55.945 28.4486 56.1891 28.6404 56.1891 31.9557C56.1891 35.1165 55.8622 35.4443 52.7174 35.4443C52.2002 35.4443 51.6829 35.469 51.1678 35.434C49.8043 35.3391 49.1216 34.6051 49.0988 33.2505C49.0906 32.8052 49.0988 32.3578 49.0988 31.9124L49.0968 31.9104ZM51.0685 33.3804H54.2133V30.4032H51.0685V33.3804Z" fill="white"/>
<path d="M49.0968 40.842C48.9023 37.7472 49.6802 37.238 52.6202 37.3101C55.9284 37.3905 56.1912 37.5905 56.1912 40.9018C56.1912 44.079 55.9139 44.3553 52.7112 44.3553C52.676 44.3553 52.6429 44.3553 52.6078 44.3553C49.8747 44.481 48.8878 44.1841 49.0968 40.8399V40.842ZM51.0912 39.3369V42.376H54.1946V39.3369H51.0912Z" fill="white"/>
<path d="M43.8272 44.3554C40.4672 44.3554 40.2044 44.0915 40.2044 40.7184C40.2044 40.3411 40.2003 39.9617 40.2044 39.5844C40.2293 38.1288 40.9865 37.3515 42.4224 37.3308C43.3865 37.3164 44.3547 37.3061 45.3189 37.337C46.4837 37.3741 47.2575 38.1102 47.3195 39.2689C47.3692 40.2277 47.3568 41.1926 47.334 42.1534C47.3009 43.6214 46.5602 44.3265 45.0685 44.3533C44.6547 44.3616 44.241 44.3533 43.8272 44.3533V44.3554ZM45.323 39.3679H42.2382V42.3967H45.323V39.3679Z" fill="white"/>
<path d="M57.9911 40.8523C57.9911 37.5761 58.2374 37.3287 61.4815 37.3287C64.8083 37.3287 65.0504 37.57 65.0504 40.8936C65.0504 44.0976 64.7938 44.3553 61.5973 44.3553H61.4939C58.2187 44.3553 57.9911 44.1285 57.9911 40.8523ZM63.0973 42.4152V39.3452H59.9629V42.4152H63.0973Z" fill="white"/>
<path d="M38.4417 40.8915C38.4417 44.0893 38.1769 44.3574 34.9866 44.3574C31.5852 44.3574 31.3349 44.11 31.3349 40.7513C31.3349 40.442 31.3349 40.1328 31.3349 39.8235C31.3494 38.0297 32.0425 37.337 33.8362 37.3308C34.5935 37.3287 35.3528 37.3246 36.11 37.3308C37.7134 37.3432 38.4065 38.0359 38.4396 39.6565C38.4479 40.0688 38.4396 40.4812 38.4396 40.8936L38.4417 40.8915ZM36.47 39.3637H33.3356V42.3842H36.47V39.3637Z" fill="white"/>
<path d="M13.004 15.346C13.7923 14.5274 14.504 13.7831 15.2261 13.0471C15.6957 12.5667 16.213 12.3852 16.7426 12.9378C17.2309 13.447 17.053 13.9439 16.6164 14.3831C15.673 15.3336 14.7213 16.2799 13.7675 17.2222C13.6475 17.3418 13.4654 17.5418 13.3661 17.515C12.8509 17.3768 12.1992 17.3129 11.8806 16.9645C11.2558 16.2799 10.0061 15.88 10.333 14.6491C10.4986 14.0285 11.113 13.7646 11.742 14.2264C12.1516 14.5274 12.5075 14.9006 13.004 15.346Z" fill="white"/>
</g>
</g>
<defs>
<filter id="filter0_d_0_1" x="-39" y="-40" width="153" height="154" filterUnits="userSpaceOnUse" color-interpolation-filters="sRGB">
<feFlood flood-opacity="0" result="BackgroundImageFix"/>
<feColorMatrix in="SourceAlpha" type="matrix" values="0 0 0 0 0 0 0 0 0 0 0 0 0 0 0 0 0 0 127 0" result="hardAlpha"/>
<feOffset dy="4"/>
<feGaussianBlur stdDeviation="2"/>
<feComposite in2="hardAlpha" operator="out"/>
<feColorMatrix type="matrix" values="0 0 0 0 0 0 0 0 0 0 0 0 0 0 0 0 0 0 0.25 0"/>
<feBlend mode="normal" in2="BackgroundImageFix" result="effect1_dropShadow_0_1"/>
<feBlend mode="normal" in="SourceGraphic" in2="effect1_dropShadow_0_1" result="shape"/>
</filter>
<filter id="filter1_d_0_1" x="0" y="0" width="73" height="74" filterUnits="userSpaceOnUse" color-interpolation-filters="sRGB">
<feFlood flood-opacity="0" result="BackgroundImageFix"/>
<feColorMatrix in="SourceAlpha" type="matrix" values="0 0 0 0 0 0 0 0 0 0 0 0 0 0 0 0 0 0 127 0" result="hardAlpha"/>
<feOffset dy="4"/>
<feGaussianBlur stdDeviation="2"/>
<feComposite in2="hardAlpha" operator="out"/>
<feColorMatrix type="matrix" values="0 0 0 0 0 0 0 0 0 0 0 0 0 0 0 0 0 0 0.25 0"/>
<feBlend mode="normal" in2="BackgroundImageFix" result="effect1_dropShadow_0_1"/>
<feBlend mode="normal" in="SourceGraphic" in2="effect1_dropShadow_0_1" result="shape"/>
</filter>
<linearGradient id="paint0_linear_0_1" x1="1869" y1="3938.07" x2="82.4904" y2="12355.8" gradientUnits="userSpaceOnUse">
<stop stop-color="#275A53"/>
<stop offset="1" stop-color="#079980"/>
</linearGradient>
<clipPath id="clip0_0_1">
<rect width="1920" height="12542" fill="white" transform="translate(-923 -3623)"/>
</clipPath>
<clipPath id="clip1_0_1">
<rect width="65" height="66" fill="white" transform="translate(4)"/>
</clipPath>
</defs>
</svg>
